<svg width="32" height="32" viewBox="0 0 32 32" fill="none" xmlns="http://www.w3.org/2000/svg">
<g clip-path="url(#clip0_3468_79)">
<path d="M16.095 31.9366C24.8441 31.9366 31.9366 24.8441 31.9366 16.095C31.9366 7.34595 24.8441 0.253418 16.095 0.253418C7.34598 0.253418 0.253448 7.34595 0.253448 16.095C0.253448 24.8441 7.34598 31.9366 16.095 31.9366Z" fill="black"/>
<path d="M20.2288 12.0837C20.1459 11.3084 19.7967 10.7047 19.1812 10.2727C18.5716 9.84061 17.7785 9.62458 16.802 9.62458C16.1154 9.62458 15.5265 9.72815 15.0353 9.9353C14.544 10.1425 14.1682 10.4236 13.9078 10.7787C13.6474 11.1338 13.5142 11.5392 13.5083 11.995C13.5083 12.3737 13.5941 12.7022 13.7657 12.9804C13.9433 13.2586 14.183 13.4953 14.4848 13.6906C14.7867 13.88 15.1211 14.0398 15.488 14.17C15.855 14.3002 16.2249 14.4097 16.5978 14.4985L18.3023 14.9246C18.9889 15.0844 19.6488 15.3005 20.2821 15.5727C20.9213 15.845 21.4924 16.1883 21.9955 16.6026C22.5045 17.0169 22.907 17.517 23.2029 18.1029C23.4988 18.6889 23.6468 19.3754 23.6468 20.1626C23.6468 21.2279 23.3745 22.166 22.83 22.9769C22.2855 23.7818 21.4983 24.4121 20.4685 24.8678C19.4446 25.3176 18.2047 25.5425 16.7487 25.5425C15.3342 25.5425 14.1061 25.3236 13.0644 24.8856C12.0286 24.4476 11.2178 23.8084 10.6319 22.968C10.0518 22.1275 9.73816 21.1036 9.69081 19.8962H12.9312C12.9786 20.5295 13.1739 21.0563 13.5172 21.4765C13.8604 21.8967 14.3073 22.2104 14.8577 22.4175C15.4141 22.6247 16.0355 22.7283 16.7221 22.7283C17.4382 22.7283 18.0656 22.6217 18.6042 22.4087C19.1487 22.1897 19.5748 21.8878 19.8826 21.5031C20.1903 21.1125 20.3472 20.6568 20.3531 20.1359C20.3472 19.6625 20.2081 19.2718 19.9358 18.9641C19.6636 18.6504 19.2818 18.39 18.7906 18.1828C18.3053 17.9697 17.7371 17.7804 17.086 17.6146L15.0175 17.082C13.5201 16.6973 12.3364 16.1143 11.4664 15.333C10.6023 14.5459 10.1702 13.5012 10.1702 12.1992C10.1702 11.1279 10.4602 10.1898 11.0402 9.38488C11.6262 8.57995 12.4222 7.95554 13.4284 7.51165C14.4345 7.06184 15.5739 6.83694 16.8463 6.83694C18.1366 6.83694 19.267 7.06184 20.2377 7.51165C21.2142 7.95554 21.9807 8.57403 22.537 9.36712C23.0934 10.1543 23.3804 11.0598 23.3982 12.0837H20.2288Z" fill="white"/>
</g>
<defs>
<clipPath id="clip0_3468_79">
<rect width="32" height="32" fill="white"/>
</clipPath>
</defs>
</svg>
